{"asset":{"version":"2.0","generator":"ScopeMesh 3D viewer preparer"},"scene":0,"scenes":[{"nodes":[0]}],"nodes":[{"mesh":0,"name":"Reef"}],"meshes":[{"name":"Reef","primitives":[{"attributes":{"POSITION":0,"NORMAL":1,"TEXCOORD_0":2},"indices":3,"material":0,"mode":4},{"attributes":{"POSITION":4,"NORMAL":5,"TEXCOORD_0":6},"indices":7,"material":1,"mode":4},{"attributes":{"POSITION":8,"NORMAL":9,"TEXCOORD_0":10},"indices":11,"material":2,"mode":4},{"attributes":{"POSITION":12,"NORMAL":13,"TEXCOORD_0":14},"indices":15,"material":3,"mode":4},{"attributes":{"POSITION":16,"NORMAL":17,"TEXCOORD_0":18},"indices":19,"material":4,"mode":4},{"attributes":{"POSITION":20,"NORMAL":21,"TEXCOORD_0":22},"indices":23,"material":5,"mode":4},{"attributes":{"POSITION":24,"NORMAL":25,"TEXCOORD_0":26},"indices":27,"material":6,"mode":4},{"attributes":{"POSITION":28,"NORMAL":29,"TEXCOORD_0":30},"indices":31,"material":7,"mode":4},{"attributes":{"POSITION":32,"NORMAL":33,"TEXCOORD_0":34},"indices":35,"material":8,"mode":4},{"attributes":{"POSITION":36,"NORMAL":37,"TEXCOORD_0":38},"indices":39,"material":9,"mode":4},{"attributes":{"POSITION":40,"NORMAL":41,"TEXCOORD_0":42},"indices":43,"material":10,"mode":4},{"attributes":{"POSITION":44,"NORMAL":45,"TEXCOORD_0":46},"indices":47,"material":11,"mode":4},{"attributes":{"POSITION":48,"NORMAL":49,"TEXCOORD_0":50},"indices":51,"material":12,"mode":4},{"attributes":{"POSITION":52,"NORMAL":53,"TEXCOORD_0":54},"indices":55,"material":13,"mode":4},{"attributes":{"POSITION":56,"NORMAL":57,"TEXCOORD_0":58},"indices":59,"material":14,"mode":4},{"attributes":{"POSITION":60,"NORMAL":61,"TEXCOORD_0":62},"indices":63,"material":15,"mode":4},{"attributes":{"POSITION":64,"NORMAL":65,"TEXCOORD_0":66},"indices":67,"material":16,"mode":4},{"attributes":{"POSITION":68,"NORMAL":69,"TEXCOORD_0":70},"indices":71,"material":17,"mode":4},{"attributes":{"POSITION":72,"NORMAL":73,"TEXCOORD_0":74},"indices":75,"material":18,"mode":4},{"attributes":{"POSITION":76,"NORMAL":77,"TEXCOORD_0":78},"indices":79,"material":19,"mode":4},{"attributes":{"POSITION":80,"NORMAL":81,"TEXCOORD_0":82},"indices":83,"material":20,"mode":4},{"attributes":{"POSITION":84,"NORMAL":85,"TEXCOORD_0":86},"indices":87,"material":21,"mode":4},{"attributes":{"POSITION":88,"NORMAL":89,"TEXCOORD_0":90},"indices":91,"material":22,"mode":4},{"attributes":{"POSITION":92,"NORMAL":93,"TEXCOORD_0":94},"indices":95,"material":23,"mode":4},{"attributes":{"POSITION":96,"NORMAL":97,"TEXCOORD_0":98},"indices":99,"material":24,"mode":4},{"attributes":{"POSITION":100,"NORMAL":101,"TEXCOORD_0":102},"indices":103,"material":25,"mode":4},{"attributes":{"POSITION":104,"NORMAL":105,"TEXCOORD_0":106},"indices":107,"material":26,"mode":4},{"attributes":{"POSITION":108,"NORMAL":109,"TEXCOORD_0":110},"indices":111,"material":27,"mode":4},{"attributes":{"POSITION":112,"NORMAL":113,"TEXCOORD_0":114},"indices":115,"material":28,"mode":4},{"attributes":{"POSITION":116,"NORMAL":117,"TEXCOORD_0":118},"indices":119,"material":29,"mode":4},{"attributes":{"POSITION":120,"NORMAL":121,"TEXCOORD_0":122},"indices":123,"material":30,"mode":4},{"attributes":{"POSITION":124,"NORMAL":125,"TEXCOORD_0":126},"indices":127,"material":31,"mode":4},{"attributes":{"POSITION":128,"NORMAL":129,"TEXCOORD_0":130},"indices":131,"material":32,"mode":4},{"attributes":{"POSITION":132,"NORMAL":133,"TEXCOORD_0":134},"indices":135,"material":33,"mode":4},{"attributes":{"POSITION":136,"NORMAL":137,"TEXCOORD_0":138},"indices":139,"material":34,"mode":4},{"attributes":{"POSITION":140,"NORMAL":141,"TEXCOORD_0":142},"indices":143,"material":35,"mode":4},{"attributes":{"POSITION":144,"NORMAL":145,"TEXCOORD_0":146},"indices":147,"material":36,"mode":4},{"attributes":{"POSITION":148,"NORMAL":149,"TEXCOORD_0":150},"indices":151,"material":37,"mode":4}]}],"buffers":[{"uri":"model.bin","byteLength":8853288}],"bufferViews":[{"buffer":0,"byteOffset":0,"byteLength":226524,"target":34962},{"buffer":0,"byteOffset":226524,"byteLength":226524,"target":34962},{"buffer":0,"byteOffset":453048,"byteLength":151016,"target":34962},{"buffer":0,"byteOffset":604064,"byteLength":194856,"target":34963},{"buffer":0,"byteOffset":798920,"byteLength":187380,"target":34962},{"buffer":0,"byteOffset":986300,"byteLength":187380,"target":34962},{"buffer":0,"byteOffset":1173680,"byteLength":124920,"target":34962},{"buffer":0,"byteOffset":1298600,"byteLength":160866,"target":34963},{"buffer":0,"byteOffset":1459468,"byteLength":190668,"target":34962},{"buffer":0,"byteOffset":1650136,"byteLength":190668,"target":34962},{"buffer":0,"byteOffset":1840804,"byteLength":127112,"target":34962},{"buffer":0,"byteOffset":1967916,"byteLength":162612,"target":34963},{"buffer":0,"byteOffset":2130528,"byteLength":358932,"target":34962},{"buffer":0,"byteOffset":2489460,"byteLength":358932,"target":34962},{"buffer":0,"byteOffset":2848392,"byteLength":239288,"target":34962},{"buffer":0,"byteOffset":3087680,"byteLength":317916,"target":34963},{"buffer":0,"byteOffset":3405596,"byteLength":173964,"target":34962},{"buffer":0,"byteOffset":3579560,"byteLength":173964,"target":34962},{"buffer":0,"byteOffset":3753524,"byteLength":115976,"target":34962},{"buffer":0,"byteOffset":3869500,"byteLength":150684,"target":34963},{"buffer":0,"byteOffset":4020184,"byteLength":178056,"target":34962},{"buffer":0,"byteOffset":4198240,"byteLength":178056,"target":34962},{"buffer":0,"byteOffset":4376296,"byteLength":118704,"target":34962},{"buffer":0,"byteOffset":4495000,"byteLength":150060,"target":34963},{"buffer":0,"byteOffset":4645060,"byteLength":279300,"target":34962},{"buffer":0,"byteOffset":4924360,"byteLength":279300,"target":34962},{"buffer":0,"byteOffset":5203660,"byteLength":186200,"target":34962},{"buffer":0,"byteOffset":5389860,"byteLength":239148,"target":34963},{"buffer":0,"byteOffset":5629008,"byteLength":297768,"target":34962},{"buffer":0,"byteOffset":5926776,"byteLength":297768,"target":34962},{"buffer":0,"byteOffset":6224544,"byteLength":198512,"target":34962},{"buffer":0,"byteOffset":6423056,"byteLength":241668,"target":34963},{"buffer":0,"byteOffset":6664724,"byteLength":259692,"target":34962},{"buffer":0,"byteOffset":6924416,"byteLength":259692,"target":34962},{"buffer":0,"byteOffset":7184108,"byteLength":173128,"target":34962},{"buffer":0,"byteOffset":7357236,"byteLength":187128,"target":34963},{"buffer":0,"byteOffset":7544364,"byteLength":85152,"target":34962},{"buffer":0,"byteOffset":7629516,"byteLength":85152,"target":34962},{"buffer":0,"byteOffset":7714668,"byteLength":56768,"target":34962},{"buffer":0,"byteOffset":7771436,"byteLength":51744,"target":34963},{"buffer":0,"byteOffset":7823180,"byteLength":27456,"target":34962},{"buffer":0,"byteOffset":7850636,"byteLength":27456,"target":34962},{"buffer":0,"byteOffset":7878092,"byteLength":18304,"target":34962},{"buffer":0,"byteOffset":7896396,"byteLength":14604,"target":34963},{"buffer":0,"byteOffset":7911000,"byteLength":29472,"target":34962},{"buffer":0,"byteOffset":7940472,"byteLength":29472,"target":34962},{"buffer":0,"byteOffset":7969944,"byteLength":19648,"target":34962},{"buffer":0,"byteOffset":7989592,"byteLength":15222,"target":34963},{"buffer":0,"byteOffset":8004816,"byteLength":28716,"target":34962},{"buffer":0,"byteOffset":8033532,"byteLength":28716,"target":34962},{"buffer":0,"byteOffset":8062248,"byteLength":19144,"target":34962},{"buffer":0,"byteOffset":8081392,"byteLength":13680,"target":34963},{"buffer":0,"byteOffset":8095072,"byteLength":27852,"target":34962},{"buffer":0,"byteOffset":8122924,"byteLength":27852,"target":34962},{"buffer":0,"byteOffset":8150776,"byteLength":18568,"target":34962},{"buffer":0,"byteOffset":8169344,"byteLength":12042,"target":34963},{"buffer":0,"byteOffset":8181388,"byteLength":11340,"target":34962},{"buffer":0,"byteOffset":8192728,"byteLength":11340,"target":34962},{"buffer":0,"byteOffset":8204068,"byteLength":7560,"target":34962},{"buffer":0,"byteOffset":8211628,"byteLength":4758,"target":34963},{"buffer":0,"byteOffset":8216388,"byteLength":9576,"target":34962},{"buffer":0,"byteOffset":8225964,"byteLength":9576,"target":34962},{"buffer":0,"byteOffset":8235540,"byteLength":6384,"target":34962},{"buffer":0,"byteOffset":8241924,"byteLength":3348,"target":34963},{"buffer":0,"byteOffset":8245272,"byteLength":11208,"target":34962},{"buffer":0,"byteOffset":8256480,"byteLength":11208,"target":34962},{"buffer":0,"byteOffset":8267688,"byteLength":7472,"target":34962},{"buffer":0,"byteOffset":8275160,"byteLength":4044,"target":34963},{"buffer":0,"byteOffset":8279204,"byteLength":11436,"target":34962},{"buffer":0,"byteOffset":8290640,"byteLength":11436,"target":34962},{"buffer":0,"byteOffset":8302076,"byteLength":7624,"target":34962},{"buffer":0,"byteOffset":8309700,"byteLength":4566,"target":34963},{"buffer":0,"byteOffset":8314268,"byteLength":10248,"target":34962},{"buffer":0,"byteOffset":8324516,"byteLength":10248,"target":34962},{"buffer":0,"byteOffset":8334764,"byteLength":6832,"target":34962},{"buffer":0,"byteOffset":8341596,"byteLength":3528,"target":34963},{"buffer":0,"byteOffset":8345124,"byteLength":10800,"target":34962},{"buffer":0,"byteOffset":8355924,"byteLength":10800,"target":34962},{"buffer":0,"byteOffset":8366724,"byteLength":7200,"target":34962},{"buffer":0,"byteOffset":8373924,"byteLength":3846,"target":34963},{"buffer":0,"byteOffset":8377772,"byteLength":10980,"target":34962},{"buffer":0,"byteOffset":8388752,"byteLength":10980,"target":34962},{"buffer":0,"byteOffset":8399732,"byteLength":7320,"target":34962},{"buffer":0,"byteOffset":8407052,"byteLength":3438,"target":34963},{"buffer":0,"byteOffset":8410492,"byteLength":12228,"target":34962},{"buffer":0,"byteOffset":8422720,"byteLength":12228,"target":34962},{"buffer":0,"byteOffset":8434948,"byteLength":8152,"target":34962},{"buffer":0,"byteOffset":8443100,"byteLength":4002,"target":34963},{"buffer":0,"byteOffset":8447104,"byteLength":11400,"target":34962},{"buffer":0,"byteOffset":8458504,"byteLength":11400,"target":34962},{"buffer":0,"byteOffset":8469904,"byteLength":7600,"target":34962},{"buffer":0,"byteOffset":8477504,"byteLength":3306,"target":34963},{"buffer":0,"byteOffset":8480812,"byteLength":11088,"target":34962},{"buffer":0,"byteOffset":8491900,"byteLength":11088,"target":34962},{"buffer":0,"byteOffset":8502988,"byteLength":7392,"target":34962},{"buffer":0,"byteOffset":8510380,"byteLength":2868,"target":34963},{"buffer":0,"byteOffset":8513248,"byteLength":12204,"target":34962},{"buffer":0,"byteOffset":8525452,"byteLength":12204,"target":34962},{"buffer":0,"byteOffset":8537656,"byteLength":8136,"target":34962},{"buffer":0,"byteOffset":8545792,"byteLength":3306,"target":34963},{"buffer":0,"byteOffset":8549100,"byteLength":14016,"target":34962},{"buffer":0,"byteOffset":8563116,"byteLength":14016,"target":34962},{"buffer":0,"byteOffset":8577132,"byteLength":9344,"target":34962},{"buffer":0,"byteOffset":8586476,"byteLength":4086,"target":34963},{"buffer":0,"byteOffset":8590564,"byteLength":4596,"target":34962},{"buffer":0,"byteOffset":8595160,"byteLength":4596,"target":34962},{"buffer":0,"byteOffset":8599756,"byteLength":3064,"target":34962},{"buffer":0,"byteOffset":8602820,"byteLength":1140,"target":34963},{"buffer":0,"byteOffset":8603960,"byteLength":14736,"target":34962},{"buffer":0,"byteOffset":8618696,"byteLength":14736,"target":34962},{"buffer":0,"byteOffset":8633432,"byteLength":9824,"target":34962},{"buffer":0,"byteOffset":8643256,"byteLength":3660,"target":34963},{"buffer":0,"byteOffset":8646916,"byteLength":5424,"target":34962},{"buffer":0,"byteOffset":8652340,"byteLength":5424,"target":34962},{"buffer":0,"byteOffset":8657764,"byteLength":3616,"target":34962},{"buffer":0,"byteOffset":8661380,"byteLength":1128,"target":34963},{"buffer":0,"byteOffset":8662508,"byteLength":5748,"target":34962},{"buffer":0,"byteOffset":8668256,"byteLength":5748,"target":34962},{"buffer":0,"byteOffset":8674004,"byteLength":3832,"target":34962},{"buffer":0,"byteOffset":8677836,"byteLength":1200,"target":34963},{"buffer":0,"byteOffset":8679036,"byteLength":6084,"target":34962},{"buffer":0,"byteOffset":8685120,"byteLength":6084,"target":34962},{"buffer":0,"byteOffset":8691204,"byteLength":4056,"target":34962},{"buffer":0,"byteOffset":8695260,"byteLength":1506,"target":34963},{"buffer":0,"byteOffset":8696768,"byteLength":5796,"target":34962},{"buffer":0,"byteOffset":8702564,"byteLength":5796,"target":34962},{"buffer":0,"byteOffset":8708360,"byteLength":3864,"target":34962},{"buffer":0,"byteOffset":8712224,"byteLength":1182,"target":34963},{"buffer":0,"byteOffset":8713408,"byteLength":6720,"target":34962},{"buffer":0,"byteOffset":8720128,"byteLength":6720,"target":34962},{"buffer":0,"byteOffset":8726848,"byteLength":4480,"target":34962},{"buffer":0,"byteOffset":8731328,"byteLength":1386,"target":34963},{"buffer":0,"byteOffset":8732716,"byteLength":6672,"target":34962},{"buffer":0,"byteOffset":8739388,"byteLength":6672,"target":34962},{"buffer":0,"byteOffset":8746060,"byteLength":4448,"target":34962},{"buffer":0,"byteOffset":8750508,"byteLength":1512,"target":34963},{"buffer":0,"byteOffset":8752020,"byteLength":7368,"target":34962},{"buffer":0,"byteOffset":8759388,"byteLength":7368,"target":34962},{"buffer":0,"byteOffset":8766756,"byteLength":4912,"target":34962},{"buffer":0,"byteOffset":8771668,"byteLength":1566,"target":34963},{"buffer":0,"byteOffset":8773236,"byteLength":8028,"target":34962},{"buffer":0,"byteOffset":8781264,"byteLength":8028,"target":34962},{"buffer":0,"byteOffset":8789292,"byteLength":5352,"target":34962},{"buffer":0,"byteOffset":8794644,"byteLength":1632,"target":34963},{"buffer":0,"byteOffset":8796276,"byteLength":9756,"target":34962},{"buffer":0,"byteOffset":8806032,"byteLength":9756,"target":34962},{"buffer":0,"byteOffset":8815788,"byteLength":6504,"target":34962},{"buffer":0,"byteOffset":8822292,"byteLength":1902,"target":34963},{"buffer":0,"byteOffset":8824196,"byteLength":10176,"target":34962},{"buffer":0,"byteOffset":8834372,"byteLength":10176,"target":34962},{"buffer":0,"byteOffset":8844548,"byteLength":6784,"target":34962},{"buffer":0,"byteOffset":8851332,"byteLength":1956,"target":34963}],"accessors":[{"bufferView":0,"componentType":5126,"count":18877,"type":"VEC3","min":[-20.111292,-17.037661,-33.42503],"max":[14.164286,7.312691,-5.453423]},{"bufferView":1,"componentType":5126,"count":18877,"type":"VEC3"},{"bufferView":2,"componentType":5126,"count":18877,"type":"VEC2"},{"bufferView":3,"componentType":5123,"count":97428,"type":"SCALAR"},{"bufferView":4,"componentType":5126,"count":15615,"type":"VEC3","min":[-29.705681,-19.149906,-34.75293],"max":[13.538655,7.330367,-4.976968]},{"bufferView":5,"componentType":5126,"count":15615,"type":"VEC3"},{"bufferView":6,"componentType":5126,"count":15615,"type":"VEC2"},{"bufferView":7,"componentType":5123,"count":80433,"type":"SCALAR"},{"bufferView":8,"componentType":5126,"count":15889,"type":"VEC3","min":[-17.685905,-17.985561,-28.328531],"max":[10.971638,7.210129,-4.753756]},{"bufferView":9,"componentType":5126,"count":15889,"type":"VEC3"},{"bufferView":10,"componentType":5126,"count":15889,"type":"VEC2"},{"bufferView":11,"componentType":5123,"count":81306,"type":"SCALAR"},{"bufferView":12,"componentType":5126,"count":29911,"type":"VEC3","min":[-29.549471,-21.216282,-34.204155],"max":[10.827674,6.517598,-4.929876]},{"bufferView":13,"componentType":5126,"count":29911,"type":"VEC3"},{"bufferView":14,"componentType":5126,"count":29911,"type":"VEC2"},{"bufferView":15,"componentType":5123,"count":158958,"type":"SCALAR"},{"bufferView":16,"componentType":5126,"count":14497,"type":"VEC3","min":[-23.392181,-21.095097,-32.458588],"max":[10.866318,5.530865,-6.513139]},{"bufferView":17,"componentType":5126,"count":14497,"type":"VEC3"},{"bufferView":18,"componentType":5126,"count":14497,"type":"VEC2"},{"bufferView":19,"componentType":5123,"count":75342,"type":"SCALAR"},{"bufferView":20,"componentType":5126,"count":14838,"type":"VEC3","min":[-15.828995,-16.668467,-28.650431],"max":[13.542565,6.527045,-4.535533]},{"bufferView":21,"componentType":5126,"count":14838,"type":"VEC3"},{"bufferView":22,"componentType":5126,"count":14838,"type":"VEC2"},{"bufferView":23,"componentType":5123,"count":75030,"type":"SCALAR"},{"bufferView":24,"componentType":5126,"count":23275,"type":"VEC3","min":[-27.041376,-19.19138,-34.54739],"max":[13.711224,7.670563,-4.535533]},{"bufferView":25,"componentType":5126,"count":23275,"type":"VEC3"},{"bufferView":26,"componentType":5126,"count":23275,"type":"VEC2"},{"bufferView":27,"componentType":5123,"count":119574,"type":"SCALAR"},{"bufferView":28,"componentType":5126,"count":24814,"type":"VEC3","min":[-32.419106,-21.095097,-34.750347],"max":[11.60826,7.495441,-4.60203]},{"bufferView":29,"componentType":5126,"count":24814,"type":"VEC3"},{"bufferView":30,"componentType":5126,"count":24814,"type":"VEC2"},{"bufferView":31,"componentType":5123,"count":120834,"type":"SCALAR"},{"bufferView":32,"componentType":5126,"count":21641,"type":"VEC3","min":[-27.661291,-20.001778,-34.760773],"max":[11.962618,7.382992,-4.535533]},{"bufferView":33,"componentType":5126,"count":21641,"type":"VEC3"},{"bufferView":34,"componentType":5126,"count":21641,"type":"VEC2"},{"bufferView":35,"componentType":5123,"count":93564,"type":"SCALAR"},{"bufferView":36,"componentType":5126,"count":7096,"type":"VEC3","min":[-29.532909,-19.58843,-33.934769],"max":[12.758499,7.423142,-4.654287]},{"bufferView":37,"componentType":5126,"count":7096,"type":"VEC3"},{"bufferView":38,"componentType":5126,"count":7096,"type":"VEC2"},{"bufferView":39,"componentType":5123,"count":25872,"type":"SCALAR"},{"bufferView":40,"componentType":5126,"count":2288,"type":"VEC3","min":[-24.245176,-17.504181,-34.395348],"max":[11.79131,5.061067,-5.076531]},{"bufferView":41,"componentType":5126,"count":2288,"type":"VEC3"},{"bufferView":42,"componentType":5126,"count":2288,"type":"VEC2"},{"bufferView":43,"componentType":5123,"count":7302,"type":"SCALAR"},{"bufferView":44,"componentType":5126,"count":2456,"type":"VEC3","min":[-29.61182,-20.368031,-33.997856],"max":[13.742442,7.625992,-5.102586]},{"bufferView":45,"componentType":5126,"count":2456,"type":"VEC3"},{"bufferView":46,"componentType":5126,"count":2456,"type":"VEC2"},{"bufferView":47,"componentType":5123,"count":7611,"type":"SCALAR"},{"bufferView":48,"componentType":5126,"count":2393,"type":"VEC3","min":[-26.735834,-19.792793,-32.885979],"max":[14.24736,7.422918,-4.705919]},{"bufferView":49,"componentType":5126,"count":2393,"type":"VEC3"},{"bufferView":50,"componentType":5126,"count":2393,"type":"VEC2"},{"bufferView":51,"componentType":5123,"count":6840,"type":"SCALAR"},{"bufferView":52,"componentType":5126,"count":2321,"type":"VEC3","min":[-19.293365,-17.661188,-33.833199],"max":[11.917261,7.670563,-4.982773]},{"bufferView":53,"componentType":5126,"count":2321,"type":"VEC3"},{"bufferView":54,"componentType":5126,"count":2321,"type":"VEC2"},{"bufferView":55,"componentType":5123,"count":6021,"type":"SCALAR"},{"bufferView":56,"componentType":5126,"count":945,"type":"VEC3","min":[-27.202875,-17.685425,-33.934769],"max":[12.466295,5.559852,-4.948483]},{"bufferView":57,"componentType":5126,"count":945,"type":"VEC3"},{"bufferView":58,"componentType":5126,"count":945,"type":"VEC2"},{"bufferView":59,"componentType":5123,"count":2379,"type":"SCALAR"},{"bufferView":60,"componentType":5126,"count":798,"type":"VEC3","min":[-28.472555,-18.52726,-32.5131],"max":[12.029411,5.177899,-5.024623]},{"bufferView":61,"componentType":5126,"count":798,"type":"VEC3"},{"bufferView":62,"componentType":5126,"count":798,"type":"VEC2"},{"bufferView":63,"componentType":5123,"count":1674,"type":"SCALAR"},{"bufferView":64,"componentType":5126,"count":934,"type":"VEC3","min":[-29.590063,-21.216282,-32.550209],"max":[11.353874,7.294075,-5.185574]},{"bufferView":65,"componentType":5126,"count":934,"type":"VEC3"},{"bufferView":66,"componentType":5126,"count":934,"type":"VEC2"},{"bufferView":67,"componentType":5123,"count":2022,"type":"SCALAR"},{"bufferView":68,"componentType":5126,"count":953,"type":"VEC3","min":[-29.487131,-17.563551,-34.226257],"max":[13.538655,6.827024,-5.065711]},{"bufferView":69,"componentType":5126,"count":953,"type":"VEC3"},{"bufferView":70,"componentType":5126,"count":953,"type":"VEC2"},{"bufferView":71,"componentType":5123,"count":2283,"type":"SCALAR"},{"bufferView":72,"componentType":5126,"count":854,"type":"VEC3","min":[-27.856956,-18.472567,-31.127781],"max":[12.131053,7.169628,-5.089089]},{"bufferView":73,"componentType":5126,"count":854,"type":"VEC3"},{"bufferView":74,"componentType":5126,"count":854,"type":"VEC2"},{"bufferView":75,"componentType":5123,"count":1764,"type":"SCALAR"},{"bufferView":76,"componentType":5126,"count":900,"type":"VEC3","min":[-29.567635,-18.510796,-34.243744],"max":[11.674726,6.822889,-4.775826]},{"bufferView":77,"componentType":5126,"count":900,"type":"VEC3"},{"bufferView":78,"componentType":5126,"count":900,"type":"VEC2"},{"bufferView":79,"componentType":5123,"count":1923,"type":"SCALAR"},{"bufferView":80,"componentType":5126,"count":915,"type":"VEC3","min":[-30.91538,-19.695917,-33.42503],"max":[12.298276,6.558064,-4.708233]},{"bufferView":81,"componentType":5126,"count":915,"type":"VEC3"},{"bufferView":82,"componentType":5126,"count":915,"type":"VEC2"},{"bufferView":83,"componentType":5123,"count":1719,"type":"SCALAR"},{"bufferView":84,"componentType":5126,"count":1019,"type":"VEC3","min":[-27.641848,-17.778753,-31.576567],"max":[12.543935,6.809558,-4.671468]},{"bufferView":85,"componentType":5126,"count":1019,"type":"VEC3"},{"bufferView":86,"componentType":5126,"count":1019,"type":"VEC2"},{"bufferView":87,"componentType":5123,"count":2001,"type":"SCALAR"},{"bufferView":88,"componentType":5126,"count":950,"type":"VEC3","min":[-29.094297,-17.14608,-33.269421],"max":[13.476287,6.93951,-4.828736]},{"bufferView":89,"componentType":5126,"count":950,"type":"VEC3"},{"bufferView":90,"componentType":5126,"count":950,"type":"VEC2"},{"bufferView":91,"componentType":5123,"count":1653,"type":"SCALAR"},{"bufferView":92,"componentType":5126,"count":924,"type":"VEC3","min":[-17.101669,-17.65723,-33.323082],"max":[13.538655,6.740051,-5.141726]},{"bufferView":93,"componentType":5126,"count":924,"type":"VEC3"},{"bufferView":94,"componentType":5126,"count":924,"type":"VEC2"},{"bufferView":95,"componentType":5123,"count":1434,"type":"SCALAR"},{"bufferView":96,"componentType":5126,"count":1017,"type":"VEC3","min":[-29.590063,-17.85895,-34.54549],"max":[13.472633,7.169628,-5.040412]},{"bufferView":97,"componentType":5126,"count":1017,"type":"VEC3"},{"bufferView":98,"componentType":5126,"count":1017,"type":"VEC2"},{"bufferView":99,"componentType":5123,"count":1653,"type":"SCALAR"},{"bufferView":100,"componentType":5126,"count":1168,"type":"VEC3","min":[-26.939428,-17.351145,-33.017239],"max":[13.527448,6.793421,-5.037583]},{"bufferView":101,"componentType":5126,"count":1168,"type":"VEC3"},{"bufferView":102,"componentType":5126,"count":1168,"type":"VEC2"},{"bufferView":103,"componentType":5123,"count":2043,"type":"SCALAR"},{"bufferView":104,"componentType":5126,"count":383,"type":"VEC3","min":[-16.438837,-13.487099,-31.689295],"max":[11.046736,3.867875,-5.379753]},{"bufferView":105,"componentType":5126,"count":383,"type":"VEC3"},{"bufferView":106,"componentType":5126,"count":383,"type":"VEC2"},{"bufferView":107,"componentType":5123,"count":570,"type":"SCALAR"},{"bufferView":108,"componentType":5126,"count":1228,"type":"VEC3","min":[-31.119276,-18.981127,-33.71452],"max":[13.406045,7.490105,-4.625626]},{"bufferView":109,"componentType":5126,"count":1228,"type":"VEC3"},{"bufferView":110,"componentType":5126,"count":1228,"type":"VEC2"},{"bufferView":111,"componentType":5123,"count":1830,"type":"SCALAR"},{"bufferView":112,"componentType":5126,"count":452,"type":"VEC3","min":[-25.376644,-16.790434,-33.118778],"max":[13.57555,6.755625,-5.149112]},{"bufferView":113,"componentType":5126,"count":452,"type":"VEC3"},{"bufferView":114,"componentType":5126,"count":452,"type":"VEC2"},{"bufferView":115,"componentType":5123,"count":564,"type":"SCALAR"},{"bufferView":116,"componentType":5126,"count":479,"type":"VEC3","min":[-28.469542,-21.124392,-32.507504],"max":[12.075858,6.589323,-5.577363]},{"bufferView":117,"componentType":5126,"count":479,"type":"VEC3"},{"bufferView":118,"componentType":5126,"count":479,"type":"VEC2"},{"bufferView":119,"componentType":5123,"count":600,"type":"SCALAR"},{"bufferView":120,"componentType":5126,"count":507,"type":"VEC3","min":[-29.488117,-20.926468,-33.801376],"max":[11.79131,4.361341,-5.811851]},{"bufferView":121,"componentType":5126,"count":507,"type":"VEC3"},{"bufferView":122,"componentType":5126,"count":507,"type":"VEC2"},{"bufferView":123,"componentType":5123,"count":753,"type":"SCALAR"},{"bufferView":124,"componentType":5126,"count":483,"type":"VEC3","min":[-26.412231,-20.807156,-32.405556],"max":[12.899127,6.717738,-5.013967]},{"bufferView":125,"componentType":5126,"count":483,"type":"VEC3"},{"bufferView":126,"componentType":5126,"count":483,"type":"VEC2"},{"bufferView":127,"componentType":5123,"count":591,"type":"SCALAR"},{"bufferView":128,"componentType":5126,"count":560,"type":"VEC3","min":[-31.017328,-19.695429,-34.070698],"max":[13.941685,6.580987,-4.777782]},{"bufferView":129,"componentType":5126,"count":560,"type":"VEC3"},{"bufferView":130,"componentType":5126,"count":560,"type":"VEC2"},{"bufferView":131,"componentType":5123,"count":693,"type":"SCALAR"},{"bufferView":132,"componentType":5126,"count":556,"type":"VEC3","min":[-25.313505,-18.99431,-34.435577],"max":[13.733795,2.737442,-5.175271]},{"bufferView":133,"componentType":5126,"count":556,"type":"VEC3"},{"bufferView":134,"componentType":5126,"count":556,"type":"VEC2"},{"bufferView":135,"componentType":5123,"count":756,"type":"SCALAR"},{"bufferView":136,"componentType":5126,"count":614,"type":"VEC3","min":[-29.619358,-19.899832,-34.648399],"max":[13.79686,6.783547,-4.950951]},{"bufferView":137,"componentType":5126,"count":614,"type":"VEC3"},{"bufferView":138,"componentType":5126,"count":614,"type":"VEC2"},{"bufferView":139,"componentType":5123,"count":783,"type":"SCALAR"},{"bufferView":140,"componentType":5126,"count":669,"type":"VEC3","min":[-30.822529,-19.867558,-34.188995],"max":[14.164286,6.240178,-5.076628]},{"bufferView":141,"componentType":5126,"count":669,"type":"VEC3"},{"bufferView":142,"componentType":5126,"count":669,"type":"VEC2"},{"bufferView":143,"componentType":5123,"count":816,"type":"SCALAR"},{"bufferView":144,"componentType":5126,"count":813,"type":"VEC3","min":[-32.138752,-20.788454,-34.728508],"max":[13.729348,4.056295,-5.095729]},{"bufferView":145,"componentType":5126,"count":813,"type":"VEC3"},{"bufferView":146,"componentType":5126,"count":813,"type":"VEC2"},{"bufferView":147,"componentType":5123,"count":951,"type":"SCALAR"},{"bufferView":148,"componentType":5126,"count":848,"type":"VEC3","min":[-30.563223,-20.714176,-34.648399],"max":[12.119951,3.143127,-8.190545]},{"bufferView":149,"componentType":5126,"count":848,"type":"VEC3"},{"bufferView":150,"componentType":5126,"count":848,"type":"VEC2"},{"bufferView":151,"componentType":5123,"count":978,"type":"SCALAR"}],"samplers":[{"magFilter":9729,"minFilter":9987,"wrapS":10497,"wrapT":10497}],"images":[{"uri":"low/material-000.jpg"},{"uri":"low/material-001.jpg"},{"uri":"low/material-002.jpg"},{"uri":"low/material-003.jpg"},{"uri":"low/material-004.jpg"},{"uri":"low/material-005.jpg"},{"uri":"low/material-006.jpg"},{"uri":"low/material-007.jpg"},{"uri":"low/material-008.jpg"},{"uri":"low/material-009.jpg"},{"uri":"low/material-010.jpg"},{"uri":"low/material-011.jpg"},{"uri":"low/material-012.jpg"},{"uri":"low/material-013.jpg"},{"uri":"low/material-014.jpg"},{"uri":"low/material-015.jpg"},{"uri":"low/material-016.jpg"},{"uri":"low/material-017.jpg"},{"uri":"low/material-018.jpg"},{"uri":"low/material-019.jpg"},{"uri":"low/material-020.jpg"},{"uri":"low/material-021.jpg"},{"uri":"low/material-022.jpg"},{"uri":"low/material-023.jpg"},{"uri":"low/material-024.jpg"},{"uri":"low/material-025.jpg"},{"uri":"low/material-026.jpg"},{"uri":"low/material-027.jpg"},{"uri":"low/material-028.jpg"},{"uri":"low/material-029.jpg"},{"uri":"low/material-030.jpg"},{"uri":"low/material-031.jpg"},{"uri":"low/material-032.jpg"},{"uri":"low/material-033.jpg"},{"uri":"low/material-034.jpg"},{"uri":"low/material-035.jpg"},{"uri":"low/material-036.jpg"},{"uri":"low/material-037.jpg"}],"textures":[{"sampler":0,"source":0},{"sampler":0,"source":1},{"sampler":0,"source":2},{"sampler":0,"source":3},{"sampler":0,"source":4},{"sampler":0,"source":5},{"sampler":0,"source":6},{"sampler":0,"source":7},{"sampler":0,"source":8},{"sampler":0,"source":9},{"sampler":0,"source":10},{"sampler":0,"source":11},{"sampler":0,"source":12},{"sampler":0,"source":13},{"sampler":0,"source":14},{"sampler":0,"source":15},{"sampler":0,"source":16},{"sampler":0,"source":17},{"sampler":0,"source":18},{"sampler":0,"source":19},{"sampler":0,"source":20},{"sampler":0,"source":21},{"sampler":0,"source":22},{"sampler":0,"source":23},{"sampler":0,"source":24},{"sampler":0,"source":25},{"sampler":0,"source":26},{"sampler":0,"source":27},{"sampler":0,"source":28},{"sampler":0,"source":29},{"sampler":0,"source":30},{"sampler":0,"source":31},{"sampler":0,"source":32},{"sampler":0,"source":33},{"sampler":0,"source":34},{"sampler":0,"source":35},{"sampler":0,"source":36},{"sampler":0,"source":37}],"materials":[{"name":"material0000","pbrMetallicRoughness":{"baseColorTexture":{"index":0},"metallicFactor":0,"roughnessFactor":1},"doubleSided":true},{"name":"material0001","pbrMetallicRoughness":{"baseColorTexture":{"index":1},"metallicFactor":0,"roughnessFactor":1},"doubleSided":true},{"name":"material0002","pbrMetallicRoughness":{"baseColorTexture":{"index":2},"metallicFactor":0,"roughnessFactor":1},"doubleSided":true},{"name":"material0003","pbrMetallicRoughness":{"baseColorTexture":{"index":3},"metallicFactor":0,"roughnessFactor":1},"doubleSided":true},{"name":"material0004","pbrMetallicRoughness":{"baseColorTexture":{"index":4},"metallicFactor":0,"roughnessFactor":1},"doubleSided":true},{"name":"material0005","pbrMetallicRoughness":{"baseColorTexture":{"index":5},"metallicFactor":0,"roughnessFactor":1},"doubleSided":true},{"name":"material0006","pbrMetallicRoughness":{"baseColorTexture":{"index":6},"metallicFactor":0,"roughnessFactor":1},"doubleSided":true},{"name":"material0007","pbrMetallicRoughness":{"baseColorTexture":{"index":7},"metallicFactor":0,"roughnessFactor":1},"doubleSided":true},{"name":"material0008","pbrMetallicRoughness":{"baseColorTexture":{"index":8},"metallicFactor":0,"roughnessFactor":1},"doubleSided":true},{"name":"material0009","pbrMetallicRoughness":{"baseColorTexture":{"index":9},"metallicFactor":0,"roughnessFactor":1},"doubleSided":true},{"name":"material0010","pbrMetallicRoughness":{"baseColorTexture":{"index":10},"metallicFactor":0,"roughnessFactor":1},"doubleSided":true},{"name":"material0011","pbrMetallicRoughness":{"baseColorTexture":{"index":11},"metallicFactor":0,"roughnessFactor":1},"doubleSided":true},{"name":"material0012","pbrMetallicRoughness":{"baseColorTexture":{"index":12},"metallicFactor":0,"roughnessFactor":1},"doubleSided":true},{"name":"material0013","pbrMetallicRoughness":{"baseColorTexture":{"index":13},"metallicFactor":0,"roughnessFactor":1},"doubleSided":true},{"name":"material0014","pbrMetallicRoughness":{"baseColorTexture":{"index":14},"metallicFactor":0,"roughnessFactor":1},"doubleSided":true},{"name":"material0015","pbrMetallicRoughness":{"baseColorTexture":{"index":15},"metallicFactor":0,"roughnessFactor":1},"doubleSided":true},{"name":"material0016","pbrMetallicRoughness":{"baseColorTexture":{"index":16},"metallicFactor":0,"roughnessFactor":1},"doubleSided":true},{"name":"material0017","pbrMetallicRoughness":{"baseColorTexture":{"index":17},"metallicFactor":0,"roughnessFactor":1},"doubleSided":true},{"name":"material0018","pbrMetallicRoughness":{"baseColorTexture":{"index":18},"metallicFactor":0,"roughnessFactor":1},"doubleSided":true},{"name":"material0019","pbrMetallicRoughness":{"baseColorTexture":{"index":19},"metallicFactor":0,"roughnessFactor":1},"doubleSided":true},{"name":"material0020","pbrMetallicRoughness":{"baseColorTexture":{"index":20},"metallicFactor":0,"roughnessFactor":1},"doubleSided":true},{"name":"material0021","pbrMetallicRoughness":{"baseColorTexture":{"index":21},"metallicFactor":0,"roughnessFactor":1},"doubleSided":true},{"name":"material0022","pbrMetallicRoughness":{"baseColorTexture":{"index":22},"metallicFactor":0,"roughnessFactor":1},"doubleSided":true},{"name":"material0023","pbrMetallicRoughness":{"baseColorTexture":{"index":23},"metallicFactor":0,"roughnessFactor":1},"doubleSided":true},{"name":"material0024","pbrMetallicRoughness":{"baseColorTexture":{"index":24},"metallicFactor":0,"roughnessFactor":1},"doubleSided":true},{"name":"material0025","pbrMetallicRoughness":{"baseColorTexture":{"index":25},"metallicFactor":0,"roughnessFactor":1},"doubleSided":true},{"name":"material0026","pbrMetallicRoughness":{"baseColorTexture":{"index":26},"metallicFactor":0,"roughnessFactor":1},"doubleSided":true},{"name":"material0027","pbrMetallicRoughness":{"baseColorTexture":{"index":27},"metallicFactor":0,"roughnessFactor":1},"doubleSided":true},{"name":"material0028","pbrMetallicRoughness":{"baseColorTexture":{"index":28},"metallicFactor":0,"roughnessFactor":1},"doubleSided":true},{"name":"material0029","pbrMetallicRoughness":{"baseColorTexture":{"index":29},"metallicFactor":0,"roughnessFactor":1},"doubleSided":true},{"name":"material0030","pbrMetallicRoughness":{"baseColorTexture":{"index":30},"metallicFactor":0,"roughnessFactor":1},"doubleSided":true},{"name":"material0031","pbrMetallicRoughness":{"baseColorTexture":{"index":31},"metallicFactor":0,"roughnessFactor":1},"doubleSided":true},{"name":"material0032","pbrMetallicRoughness":{"baseColorTexture":{"index":32},"metallicFactor":0,"roughnessFactor":1},"doubleSided":true},{"name":"material0033","pbrMetallicRoughness":{"baseColorTexture":{"index":33},"metallicFactor":0,"roughnessFactor":1},"doubleSided":true},{"name":"material0034","pbrMetallicRoughness":{"baseColorTexture":{"index":34},"metallicFactor":0,"roughnessFactor":1},"doubleSided":true},{"name":"material0035","pbrMetallicRoughness":{"baseColorTexture":{"index":35},"metallicFactor":0,"roughnessFactor":1},"doubleSided":true},{"name":"material0036","pbrMetallicRoughness":{"baseColorTexture":{"index":36},"metallicFactor":0,"roughnessFactor":1},"doubleSided":true},{"name":"material0037","pbrMetallicRoughness":{"baseColorTexture":{"index":37},"metallicFactor":0,"roughnessFactor":1},"doubleSided":true}]}
